<?xml version="1.0" encoding="UTF-8"?>
<svg width="278px" height="34px" viewBox="0 0 278 34" version="1.1" xmlns="http://www.w3.org/2000/svg" xmlns:xlink="http://www.w3.org/1999/xlink">
    <!-- Generator: Sketch 51.3 (57544) - http://www.bohemiancoding.com/sketch -->
    <title>payment-logos</title>
    <desc>Created with Sketch.</desc>
    <defs>
        <linearGradient x1="-225.117749%" y1="51.8257174%" x2="98.1837234%" y2="49.7865327%" id="linearGradient-1">
            <stop stop-color="#262860" offset="0%"></stop>
            <stop stop-color="#3D429B" offset="100%"></stop>
        </linearGradient>
        <linearGradient x1="-173.800582%" y1="51.1117128%" x2="208.024941%" y2="49.1399423%" id="linearGradient-2">
            <stop stop-color="#262860" offset="0%"></stop>
            <stop stop-color="#3D429B" offset="100%"></stop>
        </linearGradient>
        <linearGradient x1="14.7494189%" y1="50.1511449%" x2="262.254458%" y2="48.1135926%" id="linearGradient-3">
            <stop stop-color="#262860" offset="0%"></stop>
            <stop stop-color="#3D429B" offset="100%"></stop>
        </linearGradient>
        <linearGradient x1="-196.712999%" y1="50.7578634%" x2="438.028986%" y2="48.7175585%" id="linearGradient-4">
            <stop stop-color="#262860" offset="0%"></stop>
            <stop stop-color="#3D429B" offset="100%"></stop>
        </linearGradient>
        <linearGradient x1="0.0114337983%" y1="50.0004344%" x2="100%" y2="50.0004344%" id="linearGradient-5">
            <stop stop-color="#00B4E6" offset="30%"></stop>
            <stop stop-color="#088CCB" offset="100%"></stop>
        </linearGradient>
    </defs>
    <g id="Page-1" stroke="none" stroke-width="1" fill="none" fill-rule="evenodd">
        <g id="payment-logos">
            <path d="M114.174,33.0474 L114.174,33.1266 L114.248,33.1266 C114.264,33.1266 114.278,33.1228 114.289,33.1166 C114.298,33.1105 114.303,33.0997 114.303,33.0866 C114.303,33.0736 114.298,33.0635 114.289,33.0574 C114.278,33.0505 114.264,33.0474 114.248,33.0474 L114.174,33.0474 Z M114.249,32.992 C114.287,32.992 114.317,33.0005 114.338,33.0174 C114.359,33.0343 114.369,33.0574 114.369,33.0866 C114.369,33.1113 114.361,33.1313 114.344,33.1474 C114.328,33.1628 114.304,33.1728 114.273,33.1767 L114.371,33.2882 L114.295,33.2882 L114.203,33.1774 L114.174,33.1774 L114.174,33.2882 L114.11,33.2882 L114.11,32.992 L114.249,32.992 Z M114.229,33.3906 C114.264,33.3906 114.297,33.3837 114.327,33.3706 C114.357,33.3575 114.384,33.3398 114.406,33.3175 C114.429,33.2952 114.447,33.269 114.46,33.2382 C114.473,33.2082 114.48,33.1759 114.48,33.1413 C114.48,33.1066 114.473,33.0743 114.46,33.0443 C114.447,33.0143 114.429,32.9874 114.406,32.9651 C114.384,32.9427 114.357,32.925 114.327,32.912 C114.297,32.8996 114.264,32.8935 114.229,32.8935 C114.194,32.8935 114.161,32.8996 114.13,32.912 C114.099,32.925 114.072,32.9427 114.049,32.9651 C114.026,32.9874 114.008,33.0143 113.996,33.0443 C113.983,33.0743 113.976,33.1066 113.976,33.1413 C113.976,33.1759 113.983,33.2082 113.996,33.2382 C114.008,33.269 114.026,33.2952 114.049,33.3175 C114.072,33.3398 114.099,33.3575 114.13,33.3706 C114.161,33.3837 114.194,33.3906 114.229,33.3906 Z M114.229,32.8219 C114.275,32.8219 114.317,32.8304 114.358,32.8473 C114.398,32.8635 114.432,32.8866 114.463,32.9158 C114.492,32.9443 114.516,32.9781 114.533,33.0174 C114.55,33.0559 114.559,33.0974 114.559,33.1413 C114.559,33.1851 114.55,33.2267 114.533,33.2652 C114.516,33.3036 114.492,33.3375 114.463,33.3667 C114.432,33.3952 114.398,33.4183 114.358,33.4352 C114.317,33.4521 114.275,33.4606 114.229,33.4606 C114.182,33.4606 114.139,33.4521 114.099,33.4352 C114.058,33.4183 114.023,33.3952 113.994,33.3667 C113.964,33.3375 113.94,33.3036 113.923,33.2652 C113.906,33.2267 113.898,33.1851 113.898,33.1413 C113.898,33.0974 113.906,33.0559 113.923,33.0174 C113.94,32.9781 113.964,32.9443 113.994,32.9158 C114.023,32.8866 114.058,32.8635 114.099,32.8473 C114.139,32.8304 114.182,32.8219 114.229,32.8219 Z M83.8192,31.6808 C83.8192,31.116 84.1946,30.652 84.8081,30.652 C85.3943,30.652 85.79,31.096 85.79,31.6808 C85.79,32.2656 85.3943,32.7096 84.8081,32.7096 C84.1946,32.7096 83.8192,32.2456 83.8192,31.6808 Z M86.4581,31.6808 L86.4581,30.0741 L85.7494,30.0741 L85.7494,30.4642 C85.5246,30.1749 85.1835,29.9933 84.7199,29.9933 C83.8059,29.9933 83.0894,30.6997 83.0894,31.6808 C83.0894,32.6626 83.8059,33.3683 84.7199,33.3683 C85.1835,33.3683 85.5246,33.1867 85.7494,32.8973 L85.7494,33.2875 L86.4581,33.2875 L86.4581,31.6808 Z M110.408,31.6808 C110.408,31.116 110.783,30.652 111.397,30.652 C111.984,30.652 112.379,31.096 112.379,31.6808 C112.379,32.2656 111.984,32.7096 111.397,32.7096 C110.783,32.7096 110.408,32.2456 110.408,31.6808 Z M113.048,31.6808 L113.048,28.7837 L112.338,28.7837 L112.338,30.4642 C112.113,30.1749 111.772,29.9933 111.309,29.9933 C110.395,29.9933 109.678,30.6997 109.678,31.6808 C109.678,32.6626 110.395,33.3683 111.309,33.3683 C111.772,33.3683 112.113,33.1867 112.338,32.8973 L112.338,33.2875 L113.048,33.2875 L113.048,31.6808 Z M95.2555,30.6189 C95.7121,30.6189 96.0055,30.9013 96.0805,31.3984 L94.3891,31.3984 C94.4648,30.9344 94.7505,30.6189 95.2555,30.6189 Z M95.2695,29.9933 C94.3141,29.9933 93.646,30.6789 93.646,31.6808 C93.646,32.7027 94.3415,33.3683 95.3171,33.3683 C95.8081,33.3683 96.2576,33.2475 96.6534,32.9181 L96.306,32.4003 C96.0329,32.6149 95.6847,32.7365 95.3577,32.7365 C94.9011,32.7365 94.4851,32.528 94.3828,31.9493 L96.8032,31.9493 C96.8103,31.8624 96.8173,31.7747 96.8173,31.6808 C96.8103,30.6789 96.1827,29.9933 95.2695,29.9933 Z M103.827,31.6808 C103.827,31.116 104.203,30.652 104.816,30.652 C105.402,30.652 105.798,31.096 105.798,31.6808 C105.798,32.2656 105.402,32.7096 104.816,32.7096 C104.203,32.7096 103.827,32.2456 103.827,31.6808 Z M106.466,31.6808 L106.466,30.0741 L105.757,30.0741 L105.757,30.4642 C105.532,30.1749 105.192,29.9933 104.728,29.9933 C103.814,29.9933 103.097,30.6997 103.097,31.6808 C103.097,32.6626 103.814,33.3683 104.728,33.3683 C105.192,33.3683 105.532,33.1867 105.757,32.8973 L105.757,33.2875 L106.466,33.2875 L106.466,31.6808 Z M99.8247,31.6808 C99.8247,32.6557 100.513,33.3683 101.564,33.3683 C102.055,33.3683 102.382,33.2605 102.736,32.9851 L102.396,32.4203 C102.13,32.6088 101.85,32.7096 101.543,32.7096 C100.977,32.7027 100.561,32.2995 100.561,31.6808 C100.561,31.0621 100.977,30.6589 101.543,30.652 C101.85,30.652 102.13,30.7528 102.396,30.9413 L102.736,30.3765 C102.382,30.101 102.055,29.9933 101.564,29.9933 C100.513,29.9933 99.8247,30.7058 99.8247,31.6808 Z M108.962,29.9933 C108.553,29.9933 108.287,30.1818 108.103,30.4642 L108.103,30.0741 L107.4,30.0741 L107.4,33.2875 L108.11,33.2875 L108.11,31.4861 C108.11,30.9544 108.342,30.6589 108.805,30.6589 C108.949,30.6589 109.099,30.6789 109.249,30.7397 L109.467,30.081 C109.31,30.0202 109.106,29.9933 108.962,29.9933 Z M89.9635,30.3296 C89.6224,30.108 89.1525,29.9933 88.6343,29.9933 C87.8085,29.9933 87.2769,30.3834 87.2769,31.0221 C87.2769,31.5461 87.6726,31.8693 88.4017,31.9701 L88.7365,32.017 C89.1252,32.0709 89.3086,32.1717 89.3086,32.3533 C89.3086,32.6019 89.0495,32.7434 88.5656,32.7434 C88.0746,32.7434 87.7203,32.5888 87.4814,32.4072 L87.1474,32.9512 C87.5361,33.2336 88.027,33.3683 88.5585,33.3683 C89.4999,33.3683 90.0454,32.9312 90.0454,32.3195 C90.0454,31.7547 89.6162,31.4592 88.9067,31.3584 L88.5726,31.3107 C88.2658,31.2707 88.02,31.2106 88.02,30.9952 C88.02,30.7597 88.2518,30.6189 88.6405,30.6189 C89.0565,30.6189 89.4593,30.7736 89.6567,30.8944 L89.9635,30.3296 Z M99.1081,29.9933 C98.6991,29.9933 98.433,30.1818 98.2496,30.4642 L98.2496,30.0741 L97.5471,30.0741 L97.5471,33.2875 L98.2558,33.2875 L98.2558,31.4861 C98.2558,30.9544 98.4876,30.6589 98.9512,30.6589 C99.0949,30.6589 99.2447,30.6789 99.3946,30.7397 L99.6131,30.081 C99.4562,30.0202 99.2517,29.9933 99.1081,29.9933 Z M93.0598,30.0741 L91.9008,30.0741 L91.9008,29.0992 L91.1842,29.0992 L91.1842,30.0741 L90.5231,30.0741 L90.5231,30.7128 L91.1842,30.7128 L91.1842,32.1786 C91.1842,32.9243 91.4777,33.3683 92.316,33.3683 C92.6235,33.3683 92.9779,33.2744 93.2027,33.1197 L92.9982,32.5211 C92.7867,32.6419 92.5548,32.7027 92.3706,32.7027 C92.0163,32.7027 91.9008,32.4872 91.9008,32.1648 L91.9008,30.7128 L93.0598,30.7128 L93.0598,30.0741 Z M82.4626,33.2875 L82.4626,31.2707 C82.4626,30.5112 81.9717,30.0002 81.1802,29.9933 C80.7642,29.9864 80.3349,30.1141 80.0344,30.565 C79.8096,30.2088 79.4553,29.9933 78.9573,29.9933 C78.6092,29.9933 78.2689,30.0941 78.0027,30.4704 L78.0027,30.0741 L77.2932,30.0741 L77.2932,33.2875 L78.009,33.2875 L78.009,31.5061 C78.009,30.9482 78.3227,30.652 78.8074,30.652 C79.2781,30.652 79.5162,30.9544 79.5162,31.4992 L79.5162,33.2875 L80.2327,33.2875 L80.2327,31.5061 C80.2327,30.9482 80.5597,30.652 81.0304,30.652 C81.5143,30.652 81.7461,30.9544 81.7461,31.4992 L81.7461,33.2875 L82.4626,33.2875 Z" id="Shape" fill="#231F20" fill-rule="nonzero"></path>
            <path d="M114.611,22.601 L114.611,22.1316 L114.487,22.1316 L114.343,22.454 L114.2,22.1316 L114.075,22.1316 L114.075,22.601 L114.163,22.601 L114.163,22.247 L114.298,22.5525 L114.389,22.5525 L114.523,22.2462 L114.523,22.601 L114.611,22.601 Z M113.823,22.601 L113.823,22.2116 L113.982,22.2116 L113.982,22.1324 L113.576,22.1324 L113.576,22.2116 L113.736,22.2116 L113.736,22.601 L113.823,22.601 Z" id="Shape" fill="#F79410" fill-rule="nonzero"></path>
            <polygon id="Shape" fill="#FF5F00" fill-rule="nonzero" points="100.501 24.6201 89.7594 24.6201 89.7594 5.5892 100.501 5.5892"></polygon>
            <path d="M90.4465,15.1032 C90.4465,11.2427 92.2799,7.8039 95.1351,5.58778 C93.0472,3.96724 90.4121,3 87.5484,3 C80.7688,3 75.2731,8.41872 75.2731,15.1032 C75.2731,21.7878 80.7688,27.2065 87.5484,27.2065 C90.4121,27.2065 93.0472,26.2392 95.1351,24.6187 C92.2799,22.4026 90.4465,18.9638 90.4465,15.1032 Z" id="Shape" fill="#EB001B" fill-rule="nonzero"></path>
            <path d="M114.987,15.1032 C114.987,21.7878 109.491,27.2065 102.711,27.2065 C99.8476,27.2065 97.2126,26.2392 95.1239,24.6187 C97.9798,22.4026 99.8133,18.9638 99.8133,15.1032 C99.8133,11.2427 97.9798,7.8039 95.1239,5.58778 C97.2126,3.96724 99.8476,3 102.711,3 C109.491,3 114.987,8.41872 114.987,15.1032 Z" id="Shape" fill="#F79E1B" fill-rule="nonzero"></path>
            <path d="M51.2721,24.654 C49.992,24.654 48.712,24.654 47.412,24.654 C47.2711,23.9863 47.1197,23.3325 46.9995,22.6731 C46.9504,22.3993 46.8614,22.2932 46.5511,22.2978 C45.0033,22.3174 43.4555,22.3127 41.9077,22.3006 C41.6731,22.2987 41.5804,22.3751 41.5094,22.5847 C41.2965,23.2124 41.0628,23.8345 40.8244,24.4538 C40.7923,24.5376 40.6844,24.6531 40.6116,24.654 C39.2161,24.6661 37.8215,24.6624 36.3854,24.6624 C36.6465,24.0421 36.8944,23.4498 37.146,22.8594 C38.9445,18.635 40.744,14.4106 42.5435,10.1853 C42.9333,9.27072 43.517,8.88702 44.5227,8.88702 C45.6429,8.88702 46.763,8.88702 47.9116,8.88702 C48.0232,9.40204 48.1367,9.9096 48.2446,10.4181 C49.1301,14.5931 50.0128,18.7682 50.9003,22.9432 C51.0138,23.4778 51.1481,24.0086 51.273,24.5413 C51.2721,24.5795 51.2721,24.6168 51.2721,24.654 Z M46.22,19.0522 C45.8084,17.1104 45.4026,15.1957 44.9967,13.28 C44.9796,13.2772 44.9636,13.2735 44.9465,13.2707 C44.2398,15.191 43.5321,17.1104 42.8169,19.0522 C43.973,19.0522 45.079,19.0522 46.22,19.0522 Z" id="Shape" fill="url(#linearGradient-1)" fill-rule="nonzero"></path>
            <path d="M34.4589,8.60767 C34.9679,8.7008 35.4816,8.77716 35.9859,8.89171 C36.4457,8.99602 36.8969,9.14224 37.3861,9.27914 C37.1391,10.4144 36.8988,11.5217 36.6633,12.6058 C36.018,12.4195 35.4012,12.2053 34.7673,12.0675 C33.8997,11.8793 33.0114,11.8076 32.1438,12.0451 C31.7909,12.142 31.4342,12.3273 31.1561,12.562 C30.6802,12.9634 30.6736,13.5417 31.1286,13.9636 C31.4427,14.2542 31.8136,14.4935 32.1854,14.7133 C33.0303,15.2134 33.9168,15.6483 34.737,16.182 C35.7039,16.8106 36.4088,17.6758 36.5564,18.8446 C36.8184,20.9121 36.0417,22.5409 34.2772,23.693 C33.1675,24.4175 31.912,24.7407 30.6036,24.8608 C28.7767,25.0284 26.9867,24.8264 25.2411,24.262 C25.1238,24.2238 25.0103,24.1772 24.8958,24.1307 C24.8618,24.1167 24.8324,24.0925 24.7804,24.0608 C25.0273,22.9246 25.2743,21.7856 25.5278,20.6159 C25.8249,20.7435 26.1049,20.872 26.3897,20.9847 C27.753,21.5258 29.1617,21.7726 30.6206,21.5035 C31,21.4336 31.3879,21.2688 31.7095,21.0564 C32.4078,20.5954 32.4749,19.7293 31.8392,19.1882 C31.421,18.8325 30.9186,18.5698 30.4427,18.2839 C29.6991,17.8378 28.9082,17.4579 28.2043,16.9587 C27.3017,16.3189 26.6489,15.4658 26.525,14.3315 C26.3395,12.6337 26.9791,11.2544 28.3036,10.1834 C29.456,9.2512 30.824,8.8377 32.281,8.66354 C32.3623,8.65423 32.4409,8.62629 32.5203,8.60767 C33.1665,8.60767 33.8127,8.60767 34.4589,8.60767 Z" id="Shape" fill="url(#linearGradient-2)" fill-rule="nonzero"></path>
            <path d="M19.4468,8.9011 C19.2302,9.41425 19.0249,9.90411 18.8168,10.393 C16.83,15.058 14.8413,19.721 12.863,24.3896 C12.7684,24.6122 12.653,24.6709 12.424,24.669 C11.1705,24.6588 9.91595,24.6551 8.66239,24.6718 C8.39653,24.6756 8.31044,24.5834 8.24895,24.3487 C7.18649,20.2714 6.10605,16.1979 5.05495,12.1178 C4.86195,11.3691 4.47594,10.8578 3.75219,10.5439 C2.59228,10.041 1.38791,9.68805 0.159889,9.40121 C0.105016,9.38817 0.0510888,9.3742 0,9.36209 C0.00567653,8.88899 0.00567653,8.88899 0.463583,8.88899 C2.65756,8.88899 4.85154,8.88806 7.04647,8.88899 C8.08716,8.88899 8.83836,9.48409 9.03514,10.4983 C9.59239,13.3686 10.1373,16.2416 10.688,19.1138 C10.7116,19.2395 10.739,19.3643 10.7759,19.5413 C10.8327,19.436 10.8724,19.3764 10.898,19.3122 C12.2604,15.9185 13.6237,12.5257 14.9794,9.1302 C15.0532,8.94487 15.145,8.88154 15.3484,8.8834 C16.6209,8.89365 17.8943,8.88806 19.1668,8.88899 C19.2482,8.88899 19.3305,8.89644 19.4468,8.9011 Z" id="Shape" fill="url(#linearGradient-3)" fill-rule="nonzero"></path>
            <path d="M17.7836,24.6633 C18.9302,19.3902 20.0684,14.1544 21.2094,8.90558 C22.5973,8.90558 23.9691,8.90558 25.3665,8.90558 C25.1933,9.70464 25.024,10.4888 24.8537,11.273 C23.9114,15.6082 22.9662,19.9434 22.0353,24.2814 C21.971,24.5832 21.8622,24.6782 21.5443,24.6726 C20.4052,24.6512 19.2651,24.6642 18.1251,24.6642 C18.0229,24.6633 17.9208,24.6633 17.7836,24.6633 Z" id="Shape" fill="url(#linearGradient-4)" fill-rule="nonzero"></path>
            <path d="M155.002,9.40894 L155.002,9.41628 C154.995,9.41628 152.681,9.40894 152.064,11.6203 C151.498,13.6479 149.904,19.2461 149.86,19.4004 L149.419,19.4004 C149.419,19.4004 147.788,13.6773 147.215,11.6129 C146.598,9.40159 144.276,9.40894 144.276,9.40894 L138.987,9.40893984 L138.987,26.2327 L144.276,26.2327 L144.276,16.2413 L144.497,16.2413 L144.717,16.2413 L147.803,26.2327 L151.476,26.2327 L154.562,16.2486 L155.002,16.2486 L155.002,26.2327 L160.292,26.2327 L160.292,9.40893984 L155.002,9.40894 Z" id="Shape" fill="#4DB45E"></path>
            <path d="M174.325,9.40894 C174.325,9.40894 172.775,9.54852 172.047,11.1721 L168.3,19.4004 L167.86,19.4004 L167.86,9.40894 L162.57,9.40894 L162.57,26.2327 L167.566,26.2327 C167.566,26.2327 169.189,26.0858 169.917,24.4695 L173.59,16.2413 L174.031,16.2413 L174.031,26.2327 L179.32,26.2327 L179.32,9.40894 L174.325,9.40894 Z" id="Shape" fill="#4DB45E"></path>
            <path d="M181.671,17.0495 L181.671,26.2328 L186.961,26.2328 L186.961,20.8697 L192.691,20.8697 C195.189,20.8697 197.305,19.2755 198.091,17.0495 L181.671,17.0495 Z" id="Shape" fill="#4DB45E"></path>
            <path d="M192.691,9.40894 L180.929,9.40894 C181.517,12.6121 183.919,15.1834 187.027,16.0209 C187.732,16.2119 188.474,16.3148 189.238,16.3148 L198.304,16.3148 C198.385,15.9327 198.421,15.5434 198.421,15.1393 C198.421,11.9729 195.857,9.40894 192.691,9.40894 Z" id="Shape" fill="url(#linearGradient-5)"></path>
            <g id="Group" transform="translate(225.000000, 0.000000)">
                <path d="M48.228,0.0112 L4.744,0.0112 C4.563,0.0112 4.381,0.0112 4.2,0.0121334 C4.048,0.0133781 3.895,0.0149338 3.743,0.0189789 C3.41,0.0276913 3.075,0.0466719 2.747,0.104236 C2.413,0.162423 2.103,0.257637 1.8,0.407615 C1.502,0.554792 1.23,0.747399 0.993,0.977033 C0.757,1.20698 0.559,1.47146 0.407,1.76146 C0.253,2.05582 0.155,2.35764 0.096,2.68218 C0.036,3.00174 0.017,3.32752 0.008,3.6505 C0.004,3.79892 0.002,3.94703 0.001,4.09514 C0,4.27126 0,4.44737 0,4.6238 L0,28.3707 C0,28.5472 0,28.723 0.001,28.8994 C0.002,29.0475 0.004,29.1959 0.008,29.344 C0.017,29.6667 0.036,29.9928 0.096,30.312 C0.155,30.6366 0.253,30.9384 0.407,31.2331 C0.559,31.5228 0.757,31.7876 0.993,32.0172 C1.23,32.2471 1.502,32.4397 1.8,32.5866 C2.103,32.7369 2.413,32.8321 2.747,32.8906 C3.075,32.9475 3.41,32.9668 3.743,32.9756 C3.895,32.979 4.048,32.9812 4.2,32.9818 C4.381,32.983 4.563,32.983 4.744,32.983 L48.228,32.983 C48.408,32.983 48.59,32.983 48.771,32.9818 C48.923,32.9812 49.075,32.979 49.229,32.9756 C49.561,32.9668 49.896,32.9475 50.225,32.8906 C50.558,32.8321 50.869,32.7369 51.172,32.5866 C51.47,32.4397 51.741,32.2471 51.978,32.0172 C52.214,31.7876 52.412,31.5228 52.564,31.2331 C52.718,30.9384 52.816,30.6366 52.875,30.312 C52.935,29.9928 52.954,29.6667 52.963,29.344 C52.967,29.1959 52.969,29.0475 52.97,28.8994 C52.971,28.723 52.971,28.5472 52.971,28.3707 L52.971,4.6238 C52.971,4.44737 52.971,4.27126 52.97,4.09514 C52.969,3.94703 52.967,3.79892 52.963,3.6505 C52.954,3.32752 52.935,3.00174 52.875,2.68218 C52.816,2.35764 52.718,2.05582 52.564,1.76146 C52.412,1.47146 52.214,1.20698 51.978,0.977033 C51.741,0.747399 51.47,0.554792 51.172,0.407615 C50.869,0.257637 50.558,0.162423 50.225,0.104236 C49.896,0.0466719 49.561,0.0276913 49.229,0.0189789 C49.075,0.0149338 48.923,0.0133781 48.771,0.0121334 C48.59,0.0112 48.408,0.0112 48.228,0.0112 Z" id="Shape" fill="#3C4043"></path>
                <path d="M48.228,1.10989 L48.763,1.11083 C48.907,1.11176 49.052,1.11332 49.198,1.11736 C49.451,1.1239 49.748,1.13728 50.025,1.18551 C50.265,1.22751 50.466,1.29161 50.66,1.38714 C50.851,1.48142 51.025,1.60526 51.178,1.75337 C51.331,1.90272 51.459,2.07293 51.557,2.26055 C51.655,2.44725 51.72,2.64203 51.763,2.87727 C51.813,3.14331 51.826,3.43237 51.833,3.68037 C51.837,3.82008 51.839,3.9601 51.84,4.10354 C51.841,4.27686 51.841,4.44986 51.841,4.62349 L51.841,28.3704 C51.841,28.544 51.841,28.717 51.84,28.8938 C51.839,29.0338 51.837,29.1738 51.833,29.3142 C51.826,29.5615 51.813,29.8506 51.763,30.1194 C51.72,30.3516 51.655,30.5463 51.556,30.734 C51.458,30.9213 51.331,31.0912 51.179,31.2396 C51.025,31.389 50.851,31.5122 50.658,31.6074 C50.466,31.7026 50.265,31.7667 50.027,31.8081 C49.745,31.8569 49.436,31.8706 49.203,31.8765 C49.057,31.88 48.911,31.8818 48.762,31.8825 C48.584,31.8837 48.406,31.8837 48.228,31.8837 L4.744,31.8837 C4.742,31.8837 4.739,31.8837 4.737,31.8837 C4.561,31.8837 4.385,31.8837 4.206,31.8825 C4.06,31.8818 3.914,31.88 3.773,31.8769 C3.535,31.8706 3.226,31.8569 2.947,31.8084 C2.707,31.7667 2.506,31.7026 2.311,31.6061 C2.12,31.5119 1.945,31.3887 1.792,31.239 C1.64,31.0912 1.513,30.9216 1.415,30.734 C1.317,30.5467 1.251,30.3512 1.208,30.1163 C1.158,29.8478 1.144,29.5603 1.137,29.3142 C1.134,29.1735 1.132,29.0326 1.131,28.8929 L1.13,28.4796 L1.13,4.51458 L1.131,4.1023 C1.132,3.96134 1.134,3.8207 1.137,3.68006 C1.144,3.43362 1.158,3.1458 1.208,2.87509 C1.251,2.64266 1.317,2.44694 1.415,2.25869 C1.512,2.07262 1.64,1.90272 1.793,1.75399 C1.945,1.60526 2.12,1.48204 2.313,1.38682 C2.505,1.2913 2.707,1.22751 2.947,1.18551 C3.223,1.13728 3.52,1.1239 3.774,1.11736 C3.918,1.11332 4.063,1.11176 4.207,1.11083 L4.744,1.10989 L48.228,1.10989 Z" id="Shape" fill="#FFFFFE"></path>
                <path d="M25.503,17.2582 L25.503,21.9575 L23.994,21.9575 L23.994,10.3572 L27.997,10.3572 C28.962,10.3387 29.9,10.6994 30.584,11.3655 C31.952,12.6236 32.037,14.742 30.753,16.1018 C30.696,16.1573 30.64,16.2128 30.584,16.2683 C29.881,16.9251 29.018,17.2582 27.997,17.2582 L25.503,17.2582 Z M25.503,11.7818 L25.503,15.8336 L28.034,15.8336 C28.597,15.8521 29.14,15.63 29.525,15.2323 C30.312,14.4275 30.293,13.1324 29.478,12.3553 C29.093,11.9853 28.578,11.7818 28.034,11.7818 L25.503,11.7818 Z" id="Shape" fill="#3C4043" fill-rule="nonzero"></path>
                <path d="M35.149,13.7614 C36.264,13.7614 37.146,14.0574 37.792,14.6402 C38.439,15.223 38.758,16.037 38.758,17.0639 L38.758,21.9575 L37.314,21.9575 L37.314,20.8566 L37.249,20.8566 C36.621,21.7632 35.796,22.2165 34.755,22.2165 C33.874,22.2165 33.124,21.9575 32.534,21.4394 C31.952,20.9584 31.624,20.2461 31.643,19.4968 C31.643,18.6735 31.962,18.0259 32.59,17.5357 C33.218,17.0454 34.062,16.8049 35.111,16.8049 C36.011,16.8049 36.742,16.9714 37.324,17.2859 L37.324,16.9436 C37.324,16.4348 37.099,15.9538 36.705,15.6208 C36.302,15.2692 35.786,15.075 35.252,15.075 C34.408,15.075 33.743,15.4265 33.255,16.1296 L31.924,15.3062 C32.637,14.2794 33.715,13.7614 35.149,13.7614 Z M33.199,19.5246 C33.199,19.9131 33.387,20.2739 33.696,20.4959 C34.033,20.7549 34.446,20.8937 34.868,20.8844 C35.505,20.8844 36.114,20.6346 36.564,20.1906 C37.061,19.7281 37.314,19.1823 37.314,18.5532 C36.846,18.1832 36.189,17.9982 35.346,18.0074 C34.736,18.0074 34.221,18.1555 33.808,18.4422 C33.405,18.729 33.199,19.0898 33.199,19.5246 Z" id="Shape" fill="#3C4043" fill-rule="nonzero"></path>
                <polygon id="Shape" fill="#3C4043" points="47.044 14.0204 42.001 25.445 40.445 25.445 42.32 21.4487 39.011 14.0204 40.651 14.0204 43.042 19.7188 43.07 19.7188 45.404 14.0204"></polygon>
                <path d="M19.401,16.2406 C19.401,15.7873 19.363,15.334 19.288,14.89 L12.923,14.89 L12.923,17.4524 L16.57,17.4524 C16.42,18.2757 15.932,19.0158 15.22,19.4783 L15.22,21.1434 L17.395,21.1434 C18.67,19.9871 19.401,18.2757 19.401,16.2406 Z" id="Shape" fill="#4285F4"></path>
                <path d="M12.923,22.7531 C14.742,22.7531 16.279,22.161 17.395,21.1434 L15.22,19.4783 C14.611,19.8854 13.833,20.1166 12.923,20.1166 C11.161,20.1166 9.671,18.9418 9.136,17.3692 L6.896,17.3692 L6.896,19.0898 C8.04,21.3377 10.374,22.7531 12.923,22.7531 Z" id="Shape" fill="#34A853"></path>
                <path d="M9.136,17.3692 C8.855,16.5459 8.855,15.6486 9.136,14.816 L9.136,13.1046 L6.896,13.1046 C5.931,14.9825 5.931,17.2027 6.896,19.0806 L9.136,17.3692 Z" id="Shape" fill="#FBBC04"></path>
                <path d="M12.923,12.0685 C13.889,12.05 14.817,12.4108 15.511,13.0676 L17.442,11.162 C16.214,10.0334 14.601,9.4136 12.923,9.4321 C10.374,9.4321 8.04,10.8567 6.896,13.1046 L9.136,14.8252 C9.671,13.2434 11.161,12.0685 12.923,12.0685 Z" id="Shape" fill="#EA4335"></path>
            </g>
        </g>
    </g>
</svg>