<svg width="351" height="34" viewBox="0 0 351 34" fill="none" xmlns="http://www.w3.org/2000/svg">
<path d="M114.174 33.0474V33.1266H114.248C114.264 33.1266 114.278 33.1228 114.289 33.1166C114.298 33.1105 114.303 33.0997 114.303 33.0866C114.303 33.0736 114.298 33.0635 114.289 33.0574C114.278 33.0505 114.264 33.0474 114.248 33.0474H114.174ZM114.249 32.992C114.287 32.992 114.317 33.0005 114.338 33.0174C114.359 33.0343 114.369 33.0574 114.369 33.0866C114.369 33.1113 114.361 33.1313 114.344 33.1474C114.328 33.1628 114.304 33.1728 114.273 33.1767L114.371 33.2882H114.295L114.203 33.1774H114.174V33.2882H114.11V32.992H114.249ZM114.229 33.3906C114.264 33.3906 114.297 33.3837 114.327 33.3706C114.357 33.3575 114.384 33.3398 114.406 33.3175C114.429 33.2952 114.447 33.269 114.46 33.2382C114.473 33.2082 114.48 33.1759 114.48 33.1413C114.48 33.1066 114.473 33.0743 114.46 33.0443C114.447 33.0143 114.429 32.9874 114.406 32.9651C114.384 32.9427 114.357 32.925 114.327 32.912C114.297 32.8996 114.264 32.8935 114.229 32.8935C114.194 32.8935 114.161 32.8996 114.13 32.912C114.099 32.925 114.072 32.9427 114.049 32.9651C114.026 32.9874 114.008 33.0143 113.996 33.0443C113.983 33.0743 113.976 33.1066 113.976 33.1413C113.976 33.1759 113.983 33.2082 113.996 33.2382C114.008 33.269 114.026 33.2952 114.049 33.3175C114.072 33.3398 114.099 33.3575 114.13 33.3706C114.161 33.3837 114.194 33.3906 114.229 33.3906ZM114.229 32.8219C114.275 32.8219 114.317 32.8304 114.358 32.8473C114.398 32.8635 114.432 32.8866 114.463 32.9158C114.492 32.9443 114.516 32.9781 114.533 33.0174C114.55 33.0559 114.559 33.0974 114.559 33.1413C114.559 33.1851 114.55 33.2267 114.533 33.2652C114.516 33.3036 114.492 33.3375 114.463 33.3667C114.432 33.3952 114.398 33.4183 114.358 33.4352C114.317 33.4521 114.275 33.4606 114.229 33.4606C114.182 33.4606 114.139 33.4521 114.099 33.4352C114.058 33.4183 114.023 33.3952 113.994 33.3667C113.964 33.3375 113.94 33.3036 113.923 33.2652C113.906 33.2267 113.898 33.1851 113.898 33.1413C113.898 33.0974 113.906 33.0559 113.923 33.0174C113.94 32.9781 113.964 32.9443 113.994 32.9158C114.023 32.8866 114.058 32.8635 114.099 32.8473C114.139 32.8304 114.182 32.8219 114.229 32.8219ZM83.8192 31.6808C83.8192 31.116 84.1946 30.652 84.8081 30.652C85.3943 30.652 85.79 31.096 85.79 31.6808C85.79 32.2656 85.3943 32.7096 84.8081 32.7096C84.1946 32.7096 83.8192 32.2456 83.8192 31.6808ZM86.4581 31.6808V30.0741H85.7494V30.4642C85.5246 30.1749 85.1835 29.9933 84.7199 29.9933C83.8059 29.9933 83.0894 30.6997 83.0894 31.6808C83.0894 32.6626 83.8059 33.3683 84.7199 33.3683C85.1835 33.3683 85.5246 33.1867 85.7494 32.8973V33.2875H86.4581V31.6808ZM110.408 31.6808C110.408 31.116 110.783 30.652 111.397 30.652C111.984 30.652 112.379 31.096 112.379 31.6808C112.379 32.2656 111.984 32.7096 111.397 32.7096C110.783 32.7096 110.408 32.2456 110.408 31.6808ZM113.048 31.6808V28.7837H112.338V30.4642C112.113 30.1749 111.772 29.9933 111.309 29.9933C110.395 29.9933 109.678 30.6997 109.678 31.6808C109.678 32.6626 110.395 33.3683 111.309 33.3683C111.772 33.3683 112.113 33.1867 112.338 32.8973V33.2875H113.048V31.6808ZM95.2555 30.6189C95.7121 30.6189 96.0055 30.9013 96.0805 31.3984H94.3891C94.4648 30.9344 94.7505 30.6189 95.2555 30.6189ZM95.2695 29.9933C94.3141 29.9933 93.646 30.6789 93.646 31.6808C93.646 32.7027 94.3415 33.3683 95.3171 33.3683C95.8081 33.3683 96.2576 33.2475 96.6534 32.9181L96.306 32.4003C96.0329 32.6149 95.6847 32.7365 95.3577 32.7365C94.9011 32.7365 94.4851 32.528 94.3828 31.9493H96.8032C96.8103 31.8624 96.8173 31.7747 96.8173 31.6808C96.8103 30.6789 96.1827 29.9933 95.2695 29.9933ZM103.827 31.6808C103.827 31.116 104.203 30.652 104.816 30.652C105.402 30.652 105.798 31.096 105.798 31.6808C105.798 32.2656 105.402 32.7096 104.816 32.7096C104.203 32.7096 103.827 32.2456 103.827 31.6808ZM106.466 31.6808V30.0741H105.757V30.4642C105.532 30.1749 105.192 29.9933 104.728 29.9933C103.814 29.9933 103.097 30.6997 103.097 31.6808C103.097 32.6626 103.814 33.3683 104.728 33.3683C105.192 33.3683 105.532 33.1867 105.757 32.8973V33.2875H106.466V31.6808ZM99.8247 31.6808C99.8247 32.6557 100.513 33.3683 101.564 33.3683C102.055 33.3683 102.382 33.2605 102.736 32.9851L102.396 32.4203C102.13 32.6088 101.85 32.7096 101.543 32.7096C100.977 32.7027 100.561 32.2995 100.561 31.6808C100.561 31.0621 100.977 30.6589 101.543 30.652C101.85 30.652 102.13 30.7528 102.396 30.9413L102.736 30.3765C102.382 30.101 102.055 29.9933 101.564 29.9933C100.513 29.9933 99.8247 30.7058 99.8247 31.6808ZM108.962 29.9933C108.553 29.9933 108.287 30.1818 108.103 30.4642V30.0741H107.4V33.2875H108.11V31.4861C108.11 30.9544 108.342 30.6589 108.805 30.6589C108.949 30.6589 109.099 30.6789 109.249 30.7397L109.467 30.081C109.31 30.0202 109.106 29.9933 108.962 29.9933ZM89.9635 30.3296C89.6224 30.108 89.1525 29.9933 88.6343 29.9933C87.8085 29.9933 87.2769 30.3834 87.2769 31.0221C87.2769 31.5461 87.6726 31.8693 88.4017 31.9701L88.7365 32.017C89.1252 32.0709 89.3086 32.1717 89.3086 32.3533C89.3086 32.6019 89.0495 32.7434 88.5656 32.7434C88.0746 32.7434 87.7203 32.5888 87.4814 32.4072L87.1474 32.9512C87.5361 33.2336 88.027 33.3683 88.5585 33.3683C89.4999 33.3683 90.0454 32.9312 90.0454 32.3195C90.0454 31.7547 89.6162 31.4592 88.9067 31.3584L88.5726 31.3107C88.2658 31.2707 88.02 31.2106 88.02 30.9952C88.02 30.7597 88.2518 30.6189 88.6405 30.6189C89.0565 30.6189 89.4593 30.7736 89.6567 30.8944L89.9635 30.3296ZM99.1081 29.9933C98.6991 29.9933 98.433 30.1818 98.2496 30.4642V30.0741H97.5471V33.2875H98.2558V31.4861C98.2558 30.9544 98.4876 30.6589 98.9512 30.6589C99.0949 30.6589 99.2447 30.6789 99.3946 30.7397L99.6131 30.081C99.4562 30.0202 99.2517 29.9933 99.1081 29.9933ZM93.0598 30.0741H91.9008V29.0992H91.1842V30.0741H90.5231V30.7128H91.1842V32.1786C91.1842 32.9243 91.4777 33.3683 92.316 33.3683C92.6235 33.3683 92.9779 33.2744 93.2027 33.1197L92.9982 32.5211C92.7867 32.6419 92.5548 32.7027 92.3706 32.7027C92.0163 32.7027 91.9008 32.4872 91.9008 32.1648V30.7128H93.0598V30.0741ZM82.4626 33.2875V31.2707C82.4626 30.5112 81.9717 30.0002 81.1802 29.9933C80.7642 29.9864 80.3349 30.1141 80.0344 30.565C79.8096 30.2088 79.4553 29.9933 78.9573 29.9933C78.6092 29.9933 78.2689 30.0941 78.0027 30.4704V30.0741H77.2932V33.2875H78.009V31.5061C78.009 30.9482 78.3227 30.652 78.8074 30.652C79.2781 30.652 79.5162 30.9544 79.5162 31.4992V33.2875H80.2327V31.5061C80.2327 30.9482 80.5597 30.652 81.0304 30.652C81.5143 30.652 81.7461 30.9544 81.7461 31.4992V33.2875H82.4626Z" fill="#231F20"/>
<path d="M114.611 22.601V22.1316H114.487L114.343 22.454L114.2 22.1316H114.075V22.601H114.163V22.247L114.298 22.5525H114.389L114.523 22.2462V22.601H114.611ZM113.823 22.601V22.2116H113.982V22.1324H113.576V22.2116H113.736V22.601H113.823Z" fill="#F79410"/>
<path d="M100.501 24.6201H89.7594V5.5892H100.501V24.6201Z" fill="#FF5F00"/>
<path d="M90.4465 15.1032C90.4465 11.2427 92.2799 7.8039 95.1351 5.58778C93.0472 3.96724 90.4121 3 87.5484 3C80.7688 3 75.2731 8.41872 75.2731 15.1032C75.2731 21.7878 80.7688 27.2065 87.5484 27.2065C90.4121 27.2065 93.0472 26.2392 95.1351 24.6187C92.2799 22.4026 90.4465 18.9638 90.4465 15.1032Z" fill="#EB001B"/>
<path d="M114.987 15.1032C114.987 21.7878 109.491 27.2065 102.711 27.2065C99.8476 27.2065 97.2126 26.2392 95.1239 24.6187C97.9798 22.4026 99.8133 18.9638 99.8133 15.1032C99.8133 11.2427 97.9798 7.8039 95.1239 5.58778C97.2126 3.96724 99.8476 3 102.711 3C109.491 3 114.987 8.41872 114.987 15.1032Z" fill="#F79E1B"/>
<path d="M51.2721 24.654C49.992 24.654 48.712 24.654 47.412 24.654C47.2711 23.9863 47.1197 23.3325 46.9995 22.6731C46.9504 22.3993 46.8614 22.2932 46.5511 22.2978C45.0033 22.3174 43.4555 22.3127 41.9077 22.3006C41.6731 22.2987 41.5804 22.3751 41.5094 22.5847C41.2965 23.2124 41.0628 23.8345 40.8244 24.4538C40.7923 24.5376 40.6844 24.6531 40.6116 24.654C39.2161 24.6661 37.8215 24.6624 36.3854 24.6624C36.6465 24.0421 36.8944 23.4498 37.146 22.8594C38.9445 18.635 40.744 14.4106 42.5435 10.1853C42.9333 9.27072 43.517 8.88702 44.5227 8.88702C45.6429 8.88702 46.763 8.88702 47.9116 8.88702C48.0232 9.40204 48.1367 9.9096 48.2446 10.4181C49.1301 14.5931 50.0128 18.7682 50.9003 22.9432C51.0138 23.4778 51.1481 24.0086 51.273 24.5413C51.2721 24.5795 51.2721 24.6168 51.2721 24.654ZM46.22 19.0522C45.8084 17.1104 45.4026 15.1957 44.9967 13.28C44.9796 13.2772 44.9636 13.2735 44.9465 13.2707C44.2398 15.191 43.5321 17.1104 42.8169 19.0522C43.973 19.0522 45.079 19.0522 46.22 19.0522Z" fill="url(#paint0_linear)"/>
<path d="M34.4589 8.60767C34.9679 8.7008 35.4816 8.77716 35.9859 8.89171C36.4457 8.99602 36.8969 9.14224 37.3861 9.27914C37.1391 10.4144 36.8988 11.5217 36.6633 12.6058C36.018 12.4195 35.4012 12.2053 34.7673 12.0675C33.8997 11.8793 33.0114 11.8076 32.1438 12.0451C31.7909 12.142 31.4342 12.3273 31.1561 12.562C30.6802 12.9634 30.6736 13.5417 31.1286 13.9636C31.4427 14.2542 31.8136 14.4935 32.1854 14.7133C33.0303 15.2134 33.9168 15.6483 34.737 16.182C35.7039 16.8106 36.4088 17.6758 36.5564 18.8446C36.8184 20.9121 36.0417 22.5409 34.2772 23.693C33.1675 24.4175 31.912 24.7407 30.6036 24.8608C28.7767 25.0284 26.9867 24.8264 25.2411 24.262C25.1238 24.2238 25.0103 24.1772 24.8958 24.1307C24.8618 24.1167 24.8324 24.0925 24.7804 24.0608C25.0273 22.9246 25.2743 21.7856 25.5278 20.6159C25.8249 20.7435 26.1049 20.872 26.3897 20.9847C27.753 21.5258 29.1617 21.7726 30.6206 21.5035C31 21.4336 31.3879 21.2688 31.7095 21.0564C32.4078 20.5954 32.4749 19.7293 31.8392 19.1882C31.421 18.8325 30.9186 18.5698 30.4427 18.2839C29.6991 17.8378 28.9082 17.4579 28.2043 16.9587C27.3017 16.3189 26.6489 15.4658 26.525 14.3315C26.3395 12.6337 26.9791 11.2544 28.3036 10.1834C29.456 9.2512 30.824 8.8377 32.281 8.66354C32.3623 8.65423 32.4409 8.62629 32.5203 8.60767C33.1665 8.60767 33.8127 8.60767 34.4589 8.60767Z" fill="url(#paint1_linear)"/>
<path d="M19.4468 8.9011C19.2302 9.41425 19.0249 9.90411 18.8168 10.393C16.83 15.058 14.8413 19.721 12.863 24.3896C12.7684 24.6122 12.653 24.6709 12.424 24.669C11.1705 24.6588 9.91595 24.6551 8.66239 24.6718C8.39653 24.6756 8.31044 24.5834 8.24895 24.3487C7.18649 20.2714 6.10605 16.1979 5.05495 12.1178C4.86195 11.3691 4.47594 10.8578 3.75219 10.5439C2.59228 10.041 1.38791 9.68805 0.159889 9.40121C0.105016 9.38817 0.0510888 9.3742 0 9.36209C0.00567653 8.88899 0.00567653 8.88899 0.463583 8.88899C2.65756 8.88899 4.85154 8.88806 7.04647 8.88899C8.08716 8.88899 8.83836 9.48409 9.03514 10.4983C9.59239 13.3686 10.1373 16.2416 10.688 19.1138C10.7116 19.2395 10.739 19.3643 10.7759 19.5413C10.8327 19.436 10.8724 19.3764 10.898 19.3122C12.2604 15.9185 13.6237 12.5257 14.9794 9.1302C15.0532 8.94487 15.145 8.88154 15.3484 8.8834C16.6209 8.89365 17.8943 8.88806 19.1668 8.88899C19.2482 8.88899 19.3305 8.89644 19.4468 8.9011Z" fill="url(#paint2_linear)"/>
<path d="M17.7836 24.6633C18.9302 19.3902 20.0684 14.1544 21.2094 8.90558C22.5973 8.90558 23.9691 8.90558 25.3665 8.90558C25.1933 9.70464 25.024 10.4888 24.8537 11.273C23.9114 15.6082 22.9662 19.9434 22.0353 24.2814C21.971 24.5832 21.8622 24.6782 21.5443 24.6726C20.4052 24.6512 19.2651 24.6642 18.1251 24.6642C18.0229 24.6633 17.9208 24.6633 17.7836 24.6633Z" fill="url(#paint3_linear)"/>
<path fill-rule="evenodd" clip-rule="evenodd" d="M155.002 9.40894V9.41628C154.995 9.41628 152.681 9.40894 152.064 11.6203C151.498 13.6479 149.904 19.2461 149.86 19.4004H149.419C149.419 19.4004 147.788 13.6773 147.215 11.6129C146.598 9.40159 144.276 9.40894 144.276 9.40894H138.987V26.2327H144.276V16.2413H144.497H144.717L147.803 26.2327H151.476L154.562 16.2486H155.002V26.2327H160.292V9.40894H155.002Z" fill="#4DB45E"/>
<path fill-rule="evenodd" clip-rule="evenodd" d="M174.325 9.40894C174.325 9.40894 172.775 9.54852 172.047 11.1721L168.3 19.4004H167.86V9.40894H162.57V26.2327H167.566C167.566 26.2327 169.189 26.0858 169.917 24.4695L173.59 16.2413H174.031V26.2327H179.32V9.40894H174.325Z" fill="#4DB45E"/>
<path fill-rule="evenodd" clip-rule="evenodd" d="M181.671 17.0495V26.2328H186.961V20.8697H192.691C195.189 20.8697 197.305 19.2755 198.091 17.0495H181.671Z" fill="#4DB45E"/>
<path fill-rule="evenodd" clip-rule="evenodd" d="M192.691 9.40894H180.929C181.517 12.6121 183.919 15.1834 187.027 16.0209C187.732 16.2119 188.474 16.3148 189.238 16.3148H198.304C198.385 15.9327 198.421 15.5434 198.421 15.1393C198.421 11.9729 195.857 9.40894 192.691 9.40894Z" fill="url(#paint4_linear)"/>
<g clip-path="url(#clip0)">
<path fill-rule="evenodd" clip-rule="evenodd" d="M346.228 0.0112H302.744C302.563 0.0112 302.381 0.0112 302.2 0.0121334C302.048 0.0133781 301.895 0.0149338 301.743 0.0189789C301.41 0.0276913 301.075 0.0466719 300.747 0.104236C300.413 0.162423 300.103 0.257637 299.8 0.407615C299.502 0.554792 299.23 0.747399 298.993 0.977033C298.757 1.20698 298.559 1.47146 298.407 1.76146C298.253 2.05582 298.155 2.35764 298.096 2.68218C298.036 3.00174 298.017 3.32752 298.008 3.6505C298.004 3.79892 298.002 3.94703 298.001 4.09514C298 4.27126 298 4.44737 298 4.6238V28.3707C298 28.5472 298 28.723 298.001 28.8994C298.002 29.0475 298.004 29.1959 298.008 29.344C298.017 29.6667 298.036 29.9928 298.096 30.312C298.155 30.6366 298.253 30.9384 298.407 31.2331C298.559 31.5228 298.757 31.7876 298.993 32.0172C299.23 32.2471 299.502 32.4397 299.8 32.5866C300.103 32.7369 300.413 32.8321 300.747 32.8906C301.075 32.9475 301.41 32.9668 301.743 32.9756C301.895 32.979 302.048 32.9812 302.2 32.9818C302.381 32.983 302.563 32.983 302.744 32.983H346.228C346.408 32.983 346.59 32.983 346.771 32.9818C346.923 32.9812 347.075 32.979 347.229 32.9756C347.561 32.9668 347.896 32.9475 348.225 32.8906C348.558 32.8321 348.869 32.7369 349.172 32.5866C349.47 32.4397 349.741 32.2471 349.978 32.0172C350.214 31.7876 350.412 31.5228 350.564 31.2331C350.718 30.9384 350.816 30.6366 350.875 30.312C350.935 29.9928 350.954 29.6667 350.963 29.344C350.967 29.1959 350.969 29.0475 350.97 28.8994C350.971 28.723 350.971 28.5472 350.971 28.3707V4.6238C350.971 4.44737 350.971 4.27126 350.97 4.09514C350.969 3.94703 350.967 3.79892 350.963 3.6505C350.954 3.32752 350.935 3.00174 350.875 2.68218C350.816 2.35764 350.718 2.05582 350.564 1.76146C350.412 1.47146 350.214 1.20698 349.978 0.977033C349.741 0.747399 349.47 0.554792 349.172 0.407615C348.869 0.257637 348.558 0.162423 348.225 0.104236C347.896 0.0466719 347.561 0.0276913 347.229 0.0189789C347.075 0.0149338 346.923 0.0133781 346.771 0.0121334C346.59 0.0112 346.408 0.0112 346.228 0.0112Z" fill="#3C4043"/>
<path fill-rule="evenodd" clip-rule="evenodd" d="M346.228 1.10989L346.763 1.11083C346.907 1.11176 347.052 1.11332 347.198 1.11736C347.451 1.1239 347.748 1.13728 348.025 1.18551C348.265 1.22751 348.466 1.29161 348.66 1.38714C348.851 1.48142 349.025 1.60526 349.178 1.75337C349.331 1.90272 349.459 2.07293 349.557 2.26055C349.655 2.44725 349.72 2.64203 349.763 2.87727C349.813 3.14331 349.826 3.43237 349.833 3.68037C349.837 3.82008 349.839 3.9601 349.84 4.10354C349.841 4.27686 349.841 4.44986 349.841 4.62349V28.3704C349.841 28.544 349.841 28.717 349.84 28.8938C349.839 29.0338 349.837 29.1738 349.833 29.3142C349.826 29.5615 349.813 29.8506 349.763 30.1194C349.72 30.3516 349.655 30.5463 349.556 30.734C349.458 30.9213 349.331 31.0912 349.179 31.2396C349.025 31.389 348.851 31.5122 348.658 31.6074C348.466 31.7026 348.265 31.7667 348.027 31.8081C347.745 31.8569 347.436 31.8706 347.203 31.8765C347.057 31.88 346.911 31.8818 346.762 31.8825C346.584 31.8837 346.406 31.8837 346.228 31.8837H302.744C302.742 31.8837 302.739 31.8837 302.737 31.8837C302.561 31.8837 302.385 31.8837 302.206 31.8825C302.06 31.8818 301.914 31.88 301.773 31.8769C301.535 31.8706 301.226 31.8569 300.947 31.8084C300.707 31.7667 300.506 31.7026 300.311 31.6061C300.12 31.5119 299.945 31.3887 299.792 31.239C299.64 31.0912 299.513 30.9216 299.415 30.734C299.317 30.5467 299.251 30.3512 299.208 30.1163C299.158 29.8478 299.144 29.5603 299.137 29.3142C299.134 29.1735 299.132 29.0326 299.131 28.8929L299.13 28.4796V4.51458L299.131 4.1023C299.132 3.96134 299.134 3.8207 299.137 3.68006C299.144 3.43362 299.158 3.1458 299.208 2.87509C299.251 2.64266 299.317 2.44694 299.415 2.25869C299.512 2.07262 299.64 1.90272 299.793 1.75399C299.945 1.60526 300.12 1.48204 300.313 1.38682C300.505 1.2913 300.707 1.22751 300.947 1.18551C301.223 1.13728 301.52 1.1239 301.774 1.11736C301.918 1.11332 302.063 1.11176 302.207 1.11083L302.744 1.10989H346.228Z" fill="#FFFFFE"/>
<path d="M323.503 17.2582V21.9575H321.994V10.3572H325.997C326.962 10.3387 327.9 10.6994 328.584 11.3655C329.952 12.6236 330.037 14.742 328.753 16.1018C328.696 16.1573 328.64 16.2128 328.584 16.2683C327.881 16.9251 327.018 17.2582 325.997 17.2582H323.503ZM323.503 11.7818V15.8336H326.034C326.597 15.8521 327.14 15.63 327.525 15.2323C328.312 14.4275 328.293 13.1324 327.478 12.3553C327.093 11.9853 326.578 11.7818 326.034 11.7818H323.503Z" fill="#3C4043"/>
<path d="M333.149 13.7614C334.264 13.7614 335.146 14.0574 335.792 14.6402C336.439 15.223 336.758 16.037 336.758 17.0639V21.9575H335.314V20.8566H335.249C334.621 21.7632 333.796 22.2165 332.755 22.2165C331.874 22.2165 331.124 21.9575 330.534 21.4394C329.952 20.9584 329.624 20.2461 329.643 19.4968C329.643 18.6735 329.962 18.0259 330.59 17.5357C331.218 17.0454 332.062 16.8049 333.111 16.8049C334.011 16.8049 334.742 16.9714 335.324 17.2859V16.9436C335.324 16.4348 335.099 15.9538 334.705 15.6208C334.302 15.2692 333.786 15.075 333.252 15.075C332.408 15.075 331.743 15.4265 331.255 16.1296L329.924 15.3062C330.637 14.2794 331.715 13.7614 333.149 13.7614ZM331.199 19.5246C331.199 19.9131 331.387 20.2739 331.696 20.4959C332.033 20.7549 332.446 20.8937 332.868 20.8844C333.505 20.8844 334.114 20.6346 334.564 20.1906C335.061 19.7281 335.314 19.1823 335.314 18.5532C334.846 18.1832 334.189 17.9982 333.346 18.0074C332.736 18.0074 332.221 18.1555 331.808 18.4422C331.405 18.729 331.199 19.0898 331.199 19.5246Z" fill="#3C4043"/>
<path fill-rule="evenodd" clip-rule="evenodd" d="M345.044 14.0204L340.001 25.445H338.445L340.32 21.4487L337.011 14.0204H338.651L341.042 19.7188H341.07L343.404 14.0204H345.044Z" fill="#3C4043"/>
<path fill-rule="evenodd" clip-rule="evenodd" d="M317.401 16.2406C317.401 15.7873 317.363 15.334 317.288 14.89H310.923V17.4524H314.57C314.42 18.2757 313.932 19.0158 313.22 19.4783V21.1434H315.395C316.67 19.9871 317.401 18.2757 317.401 16.2406Z" fill="#4285F4"/>
<path fill-rule="evenodd" clip-rule="evenodd" d="M310.923 22.7531C312.742 22.7531 314.279 22.161 315.395 21.1434L313.22 19.4783C312.611 19.8854 311.833 20.1166 310.923 20.1166C309.161 20.1166 307.671 18.9418 307.136 17.3692H304.896V19.0898C306.04 21.3377 308.374 22.7531 310.923 22.7531Z" fill="#34A853"/>
<path fill-rule="evenodd" clip-rule="evenodd" d="M307.136 17.3692C306.855 16.5459 306.855 15.6486 307.136 14.816V13.1046H304.896C303.931 14.9825 303.931 17.2027 304.896 19.0806L307.136 17.3692Z" fill="#FBBC04"/>
<path fill-rule="evenodd" clip-rule="evenodd" d="M310.923 12.0685C311.889 12.05 312.817 12.4108 313.511 13.0676L315.442 11.162C314.214 10.0334 312.601 9.4136 310.923 9.4321C308.374 9.4321 306.04 10.8567 304.896 13.1046L307.136 14.8252C307.671 13.2434 309.161 12.0685 310.923 12.0685Z" fill="#EA4335"/>
</g>
<path d="M269.522 0H228.478C228.307 0 228.136 0 227.965 0.0010277C227.821 0.00208654 227.677 0.00373708 227.533 0.00778558C227.219 0.0165366 226.902 0.0356268 226.593 0.0930533C226.278 0.151476 225.985 0.246772 225.699 0.396816C225.418 0.54415 225.16 0.736859 224.937 0.966814C224.714 1.19677 224.528 1.46157 224.385 1.7516C224.239 2.0463 224.147 2.34847 224.09 2.67335C224.034 2.99296 224.016 3.31924 224.007 3.64247C224.003 3.79083 224.002 3.93919 224.001 4.08752C224 4.26382 224 4.43999 224 4.6166V28.3837C224 28.5603 224 28.7362 224.001 28.9129C224.002 29.0612 224.003 29.2095 224.007 29.3579C224.016 29.6808 224.034 30.0071 224.09 30.3266C224.147 30.6516 224.239 30.9537 224.385 31.2484C224.528 31.5385 224.714 31.8036 224.937 32.0332C225.16 32.2635 225.418 32.4562 225.699 32.6032C225.985 32.7536 226.278 32.849 226.593 32.9073C226.902 32.9644 227.219 32.9838 227.533 32.9926C227.677 32.9959 227.821 32.9979 227.965 32.9986C228.136 33 228.307 33 228.478 33H269.522C269.693 33 269.864 33 270.035 32.9986C270.179 32.9979 270.323 32.9959 270.467 32.9926C270.78 32.9838 271.097 32.9644 271.408 32.9073C271.722 32.849 272.015 32.7536 272.301 32.6032C272.582 32.4562 272.839 32.2635 273.062 32.0332C273.285 31.8036 273.472 31.5385 273.615 31.2484C273.761 30.9537 273.853 30.6516 273.909 30.3266C273.965 30.0071 273.984 29.6808 273.992 29.3579C273.996 29.2095 273.998 29.0612 273.999 28.9129C274 28.7362 274 28.5604 274 28.3837V4.6166C274 4.43999 274 4.26382 273.999 4.08752C273.998 3.93919 273.996 3.79083 273.992 3.64247C273.984 3.31924 273.965 2.99296 273.909 2.67335C273.853 2.34847 273.761 2.0463 273.615 1.7516C273.472 1.46157 273.285 1.19677 273.062 0.966814C272.839 0.736859 272.582 0.54415 272.301 0.396816C272.015 0.246772 271.722 0.151476 271.408 0.0930533C271.097 0.0356268 270.78 0.0165366 270.467 0.00778558C270.323 0.00373708 270.179 0.00208654 270.035 0.0010277C269.864 0 269.693 0 269.522 0Z" fill="black"/>
<path d="M269.522 1.09995L270.027 1.10094C270.164 1.10194 270.301 1.10346 270.438 1.10733C270.678 1.11399 270.957 1.12735 271.218 1.17556C271.445 1.21766 271.635 1.28169 271.818 1.37749C271.998 1.47188 272.163 1.59558 272.307 1.74397C272.452 1.89336 272.572 2.06383 272.665 2.25165C272.757 2.43835 272.819 2.63349 272.859 2.86898C272.906 3.135 272.919 3.42431 272.926 3.67249C272.929 3.81257 272.931 3.95265 272.932 4.09606C272.933 4.26949 272.933 4.44283 272.933 4.6166V28.3837C272.933 28.5575 272.933 28.7305 272.932 28.9077C272.931 29.0477 272.929 29.1878 272.926 29.3281C272.919 29.5759 272.906 29.8651 272.859 30.1343C272.819 30.3665 272.757 30.5617 272.664 30.7493C272.572 30.9367 272.452 31.107 272.308 31.2554C272.163 31.4049 271.998 31.5282 271.816 31.6235C271.635 31.7188 271.445 31.7828 271.22 31.8244C270.954 31.8733 270.663 31.8868 270.443 31.8929C270.305 31.8961 270.167 31.8981 270.026 31.8987C269.859 31.9001 269.69 31.9001 269.522 31.9001H228.478C228.475 31.9001 228.473 31.9001 228.471 31.9001C228.305 31.9001 228.139 31.9001 227.97 31.8987C227.832 31.8981 227.695 31.8962 227.562 31.893C227.337 31.8868 227.045 31.8734 226.781 31.8248C226.555 31.7828 226.365 31.7188 226.181 31.6222C226.001 31.5278 225.836 31.4046 225.691 31.2548C225.547 31.1067 225.428 30.937 225.335 30.7493C225.243 30.5619 225.181 30.3661 225.14 30.1311C225.093 29.8625 225.08 29.5745 225.074 29.3284C225.07 29.1874 225.068 29.0465 225.068 28.9065L225.067 28.4929L225.067 28.3837V4.6166L225.067 4.50741L225.068 4.09475C225.068 3.95383 225.07 3.81294 225.074 3.67215C225.08 3.42578 225.093 3.13765 225.141 2.86677C225.181 2.63386 225.243 2.4381 225.336 2.24972C225.428 2.06352 225.547 1.89355 225.692 1.74444C225.836 1.59582 226.001 1.47228 226.183 1.37699C226.364 1.28166 226.555 1.21766 226.781 1.17565C227.042 1.12732 227.322 1.11399 227.562 1.10729C227.699 1.10346 227.835 1.10194 227.971 1.10097L228.478 1.09995H269.522Z" fill="white"/>
<path d="M237.65 11.0993C238.078 10.5472 238.368 9.80601 238.292 9.04855C237.665 9.08068 236.9 9.4748 236.457 10.0273C236.06 10.5004 235.708 11.2727 235.8 11.9984C236.503 12.0613 237.206 11.6359 237.65 11.0993Z" fill="black"/>
<path d="M238.284 12.1401C237.262 12.0773 236.393 12.7378 235.906 12.7378C235.417 12.7378 234.67 12.1717 233.862 12.1869C232.81 12.2029 231.834 12.8159 231.301 13.791C230.203 15.7416 231.011 18.6351 232.079 20.2238C232.597 21.0098 233.222 21.8752 234.045 21.8441C234.823 21.8126 235.128 21.3248 236.073 21.3248C237.018 21.3248 237.293 21.8441 238.116 21.8284C238.97 21.8126 239.504 21.042 240.022 20.2553C240.617 19.3593 240.86 18.4942 240.876 18.4467C240.86 18.4309 239.229 17.7858 239.214 15.8514C239.199 14.2317 240.495 13.4613 240.556 13.4135C239.824 12.2975 238.68 12.1717 238.284 12.1401Z" fill="black"/>
<path d="M247.179 9.94803C249.4 9.94803 250.946 11.526 250.946 13.8235C250.946 16.1292 249.368 17.7154 247.124 17.7154H244.665V21.7462H242.889V9.94803H247.179V9.94803ZM244.665 16.1782H246.703C248.25 16.1782 249.13 15.3198 249.13 13.8317C249.13 12.3437 248.25 11.4934 246.711 11.4934H244.665V16.1782Z" fill="black"/>
<path d="M251.41 19.3016C251.41 17.7971 252.529 16.8732 254.511 16.7587L256.795 16.6198V15.9576C256.795 15.0009 256.169 14.4286 255.122 14.4286C254.131 14.4286 253.512 14.9191 253.361 15.6878H251.744C251.839 14.1342 253.123 12.9896 255.185 12.9896C257.208 12.9896 258.5 14.0933 258.5 15.8185V21.7462H256.859V20.3317H256.819C256.336 21.2884 255.281 21.8933 254.186 21.8933C252.552 21.8933 251.41 20.8468 251.41 19.3016ZM256.795 18.5249V17.8463L254.741 17.977C253.718 18.0507 253.139 18.5167 253.139 19.2525C253.139 20.0046 253.742 20.4953 254.662 20.4953C255.859 20.4953 256.795 19.6449 256.795 18.5249Z" fill="black"/>
<path d="M260.05 24.9104V23.4795C260.177 23.5122 260.462 23.5122 260.605 23.5122C261.398 23.5122 261.827 23.1689 262.088 22.2859C262.088 22.2695 262.239 21.7626 262.239 21.7544L259.225 13.1449H261.081L263.191 20.1437H263.222L265.332 13.1449H267.14L264.015 22.1958C263.302 24.2808 262.477 24.9512 260.748 24.9512C260.605 24.9512 260.177 24.9348 260.05 24.9104Z" fill="black"/>
<defs>
<linearGradient id="paint0_linear" x1="2.87077" y1="17.063" x2="51.0026" y2="16.7413" gradientUnits="userSpaceOnUse">
<stop stop-color="#262860"/>
<stop offset="1" stop-color="#3D429B"/>
</linearGradient>
<linearGradient id="paint1_linear" x1="2.87162" y1="16.9441" x2="51.0034" y2="16.6225" gradientUnits="userSpaceOnUse">
<stop stop-color="#262860"/>
<stop offset="1" stop-color="#3D429B"/>
</linearGradient>
<linearGradient id="paint2_linear" x1="2.86829" y1="16.8015" x2="51.0001" y2="16.4798" gradientUnits="userSpaceOnUse">
<stop stop-color="#262860"/>
<stop offset="1" stop-color="#3D429B"/>
</linearGradient>
<linearGradient id="paint3_linear" x1="2.86705" y1="16.9087" x2="50.9989" y2="16.587" gradientUnits="userSpaceOnUse">
<stop stop-color="#262860"/>
<stop offset="1" stop-color="#3D429B"/>
</linearGradient>
<linearGradient id="paint4_linear" x1="180.931" y1="12.8619" x2="198.421" y2="12.8619" gradientUnits="userSpaceOnUse">
<stop offset="0.3" stop-color="#00B4E6"/>
<stop offset="1" stop-color="#088CCB"/>
</linearGradient>
<clipPath id="clip0">
<rect width="53" height="33" fill="white" transform="translate(298)"/>
</clipPath>
</defs>
</svg>
